<?xml version="1.0" encoding="utf-8"?>
<!-- Generator: Adobe Illustrator 24.3.0, SVG Export Plug-In . SVG Version: 6.00 Build 0)  -->
<svg version="1.1" id="Calque_1" xmlns="http://www.w3.org/2000/svg" xmlns:xlink="http://www.w3.org/1999/xlink" x="0px" y="0px"
	 viewBox="0 0 387.7 121.2" style="enable-background:new 0 0 387.7 121.2;" xml:space="preserve">
<style type="text/css">
	.st0{fill:#1C4A6B;}
	.st1{fill:#29D6BD;}
	.st2{fill:#1E8DC3;}
</style>
<g>
	<path class="st0" d="M100.5,72.8c0,23.2-18.8,42-41.9,42c-13,0-24.6-5.9-32.3-15.1c7.3,6.1,16.7,9.8,27,9.8c23.2,0,42-18.8,42-42
		c0-10.2-3.7-19.6-9.8-26.9C94.7,48.3,100.5,59.8,100.5,72.8z"/>
	<path class="st1" d="M52,98.4c-23.2,0-42-18.8-42-41.9c0-13,5.9-24.6,15.1-32.3c-6.1,7.3-9.8,16.7-9.8,27c0,23.2,18.8,42,42,42
		c10.2,0,19.6-3.7,26.9-9.8C76.4,92.5,64.9,98.4,52,98.4z"/>
	<path class="st0" d="M29.3,49.8c0-23.2,18.8-42,41.9-42c13,0,24.6,5.9,32.3,15.1c-7.3-6.1-16.7-9.8-27-9.8c-23.2,0-42,18.8-42,42
		c0,10.2,3.7,19.6,9.8,26.9C35.1,74.3,29.3,62.7,29.3,49.8z"/>
	<path class="st1" d="M77.8,24.2c23.2,0,42,18.8,42,41.9c0,13-5.9,24.6-15.1,32.3c6.1-7.3,9.8-16.7,9.8-27c0-23.2-18.8-42-42-42
		c-10.2,0-19.6,3.7-26.9,9.8C53.4,30,64.9,24.2,77.8,24.2z"/>
	<g>
		<path class="st2" d="M63.7,43.3c5.6,0,10,1.6,13.2,4.7c3.1,3.1,4.7,7.6,4.7,13.3c0,5.8-1.6,10.2-4.7,13.3
			c-3.1,3.1-7.5,4.7-13.2,4.7H51v-36H63.7z M63.7,74.3c3.8,0,6.7-1.1,8.8-3.4s3-5.5,3-9.6s-1-7.4-3-9.6c-2-2.3-4.9-3.4-8.8-3.4h-6.9
			v26.1H63.7z"/>
	</g>
</g>
<g>
	<path class="st0" d="M156.4,36.6c7.6,0,13.4,2.1,17.5,6.3c4.1,4.2,6.2,10.1,6.2,17.9c0,7.7-2.1,13.6-6.2,17.8
		c-4.1,4.2-10,6.3-17.5,6.3h-18.6V36.6H156.4z M155.9,76.8c4.6,0,8-1.4,10.3-4.1c2.3-2.8,3.5-6.7,3.5-12c0-5.2-1.2-9.2-3.5-12
		c-2.3-2.8-5.8-4.1-10.3-4.1h-8v32.2H155.9z"/>
	<path class="st0" d="M231.8,36.6v48.3h-11.6l-16.9-28.4l-4.2-7.9h-0.1l0.3,8.3v27.9h-9.1V36.6h11.5l16.9,28.3l4.2,8h0.1l-0.3-8.3
		V36.6H231.8z"/>
	<path class="st0" d="M244.3,84.9V36.6h36.2v8.1h-26.1v12H275v7.7h-20.5v12.3h27.1v8.1H244.3z"/>
	<path class="st0" d="M329.9,84.9h-12l-10.5-17.1L297,84.9h-11.6l16.6-24.3l-15.4-23.9h11.8l9.7,16.2l9.9-16.2h11l-15.5,23.5
		L329.9,84.9z"/>
	<path class="st0" d="M375.6,36.6v8.1h-16.2v40.1h-10.1V44.7h-16.2v-8.1H375.6z"/>
</g>
</svg>
